<svg xmlns="http://www.w3.org/2000/svg" fill="none" viewBox="0 0 96 96" id="Metabase--Streamline-Svg-Logos">
  <desc>
    Metabase Streamline Icon: https://streamlinehq.com
  </desc>
  <path fill="#509ee3" d="M16.4598 30.7555c3.1106 0 5.6322 -2.562 5.6322 -5.7222 0 -3.1603 -2.5216 -5.7223 -5.6322 -5.7223 -3.1105 0 -5.6322 2.562 -5.6322 5.7223 0 3.1602 2.5217 5.7222 5.6322 5.7222Z" stroke-width="1"></path>
  <path fill="#509ee3" d="M16.4598 46.7777c3.1106 0 5.6322 -2.5619 5.6322 -5.7222s-2.5216 -5.7222 -5.6322 -5.7222c-3.1105 0 -5.6322 2.5619 -5.6322 5.7222s2.5217 5.7222 5.6322 5.7222Z" stroke-width="1"></path>
  <path fill="#509ee3" d="M32.2294 30.7555c3.1105 0 5.6322 -2.562 5.6322 -5.7222 0 -3.1603 -2.5217 -5.7223 -5.6322 -5.7223 -3.1106 0 -5.6322 2.562 -5.6322 5.7223 0 3.1602 2.5216 5.7222 5.6322 5.7222Z" opacity=".2" stroke-width="1"></path>
  <path fill="#509ee3" d="M32.2294 46.9332c3.1105 0 5.6322 -2.5619 5.6322 -5.7222s-2.5217 -5.7222 -5.6322 -5.7222c-3.1106 0 -5.6322 2.5619 -5.6322 5.7222s2.5216 5.7222 5.6322 5.7222Z" stroke-width="1"></path>
  <path fill="#509ee3" d="M48.0004 30.7555c3.1105 0 5.6321 -2.562 5.6321 -5.7222 0 -3.1603 -2.5216 -5.7223 -5.6321 -5.7223 -3.1106 0 -5.6322 2.562 -5.6322 5.7223 0 3.1602 2.5216 5.7222 5.6322 5.7222Z" opacity=".2" stroke-width="1"></path>
  <path fill="#509ee3" d="M48.0004 12.4444c3.1105 0 5.6321 -2.56189 5.6321 -5.72218C53.6325 3.56192 51.1109 1 48.0004 1c-3.1106 0 -5.6322 2.56192 -5.6322 5.72222 0 3.16029 2.5216 5.72218 5.6322 5.72218Z" opacity=".2" stroke-width="1"></path>
  <path fill="#509ee3" d="M48.0004 46.9332c3.1105 0 5.6321 -2.5619 5.6321 -5.7222s-2.5216 -5.7222 -5.6321 -5.7222c-3.1106 0 -5.6322 2.5619 -5.6322 5.7222s2.5216 5.7222 5.6322 5.7222Z" opacity=".2" stroke-width="1"></path>
  <path fill="#509ee3" d="M63.7699 30.7555c3.1106 0 5.6322 -2.562 5.6322 -5.7222 0 -3.1603 -2.5216 -5.7223 -5.6322 -5.7223 -3.1106 0 -5.6322 2.562 -5.6322 5.7223 0 3.1602 2.5216 5.7222 5.6322 5.7222Z" opacity=".2" stroke-width="1"></path>
  <path fill="#509ee3" d="M79.5404 30.7555c3.1106 0 5.6322 -2.562 5.6322 -5.7222 0 -3.1603 -2.5216 -5.7223 -5.6322 -5.7223 -3.1106 0 -5.6322 2.562 -5.6322 5.7223 0 3.1602 2.5216 5.7222 5.6322 5.7222Z" stroke-width="1"></path>
  <path fill="#509ee3" d="M63.7699 46.9332c3.1106 0 5.6322 -2.5619 5.6322 -5.7222s-2.5216 -5.7222 -5.6322 -5.7222c-3.1106 0 -5.6322 2.5619 -5.6322 5.7222s2.5216 5.7222 5.6322 5.7222Z" stroke-width="1"></path>
  <path fill="#509ee3" d="M79.5404 46.9332c3.1106 0 5.6322 -2.5619 5.6322 -5.7222s-2.5216 -5.7222 -5.6322 -5.7222c-3.1106 0 -5.6322 2.5619 -5.6322 5.7222s2.5216 5.7222 5.6322 5.7222Z" stroke-width="1"></path>
  <path fill="#509ee3" d="M16.4598 62.7999c3.1106 0 5.6322 -2.5619 5.6322 -5.7222s-2.5216 -5.7222 -5.6322 -5.7222c-3.1105 0 -5.6322 2.5619 -5.6322 5.7222s2.5217 5.7222 5.6322 5.7222Z" stroke-width="1"></path>
  <path fill="#509ee3" d="M32.2294 62.9557c3.1105 0 5.6322 -2.562 5.6322 -5.7223 0 -3.1602 -2.5217 -5.7222 -5.6322 -5.7222 -3.1106 0 -5.6322 2.562 -5.6322 5.7222 0 3.1603 2.5216 5.7223 5.6322 5.7223Z" opacity=".2" stroke-width="1"></path>
  <path fill="#509ee3" d="M48.0004 62.9557c3.1105 0 5.6321 -2.562 5.6321 -5.7223 0 -3.1602 -2.5216 -5.7222 -5.6321 -5.7222 -3.1106 0 -5.6322 2.562 -5.6322 5.7222 0 3.1603 2.5216 5.7223 5.6322 5.7223Z" stroke-width="1"></path>
  <path fill="#509ee3" d="M63.7699 62.9557c3.1106 0 5.6322 -2.562 5.6322 -5.7223 0 -3.1602 -2.5216 -5.7222 -5.6322 -5.7222 -3.1106 0 -5.6322 2.562 -5.6322 5.7222 0 3.1603 2.5216 5.7223 5.6322 5.7223Z" opacity=".2" stroke-width="1"></path>
  <path fill="#509ee3" d="M79.5404 62.9557c3.1106 0 5.6322 -2.562 5.6322 -5.7223 0 -3.1602 -2.5216 -5.7222 -5.6322 -5.7222 -3.1106 0 -5.6322 2.562 -5.6322 5.7222 0 3.1603 2.5216 5.7223 5.6322 5.7223Z" stroke-width="1"></path>
  <path fill="#509ee3" d="M16.4598 78.8224c3.1106 0 5.6322 -2.562 5.6322 -5.7222 0 -3.1603 -2.5216 -5.7223 -5.6322 -5.7223 -3.1105 0 -5.6322 2.562 -5.6322 5.7223 0 3.1602 2.5217 5.7222 5.6322 5.7222Z" stroke-width="1"></path>
  <path fill="#509ee3" d="M32.2294 78.9779c3.1105 0 5.6322 -2.5619 5.6322 -5.7222s-2.5217 -5.7223 -5.6322 -5.7223c-3.1106 0 -5.6322 2.562 -5.6322 5.7223s2.5216 5.7222 5.6322 5.7222Z" opacity=".2" stroke-width="1"></path>
  <path fill="#509ee3" d="M48.0004 78.9779c3.1105 0 5.6321 -2.5619 5.6321 -5.7222s-2.5216 -5.7223 -5.6321 -5.7223c-3.1106 0 -5.6322 2.562 -5.6322 5.7223s2.5216 5.7222 5.6322 5.7222Z" opacity=".2" stroke-width="1"></path>
  <path fill="#509ee3" d="M48.0004 95.0001c3.1105 0 5.6321 -2.5619 5.6321 -5.7222s-2.5216 -5.7222 -5.6321 -5.7222c-3.1106 0 -5.6322 2.5619 -5.6322 5.7222s2.5216 5.7222 5.6322 5.7222Z" opacity=".2" stroke-width="1"></path>
  <path fill="#509ee3" d="M63.7699 78.9779c3.1106 0 5.6322 -2.5619 5.6322 -5.7222s-2.5216 -5.7223 -5.6322 -5.7223c-3.1106 0 -5.6322 2.562 -5.6322 5.7223s2.5216 5.7222 5.6322 5.7222Z" opacity=".2" stroke-width="1"></path>
  <path fill="#509ee3" d="M79.5404 78.9779c3.1106 0 5.6322 -2.5619 5.6322 -5.7222s-2.5216 -5.7223 -5.6322 -5.7223c-3.1106 0 -5.6322 2.562 -5.6322 5.7223s2.5216 5.7222 5.6322 5.7222Z" stroke-width="1"></path>
</svg>